<svg width="223" height="32" viewBox="0 0 223 32" fill="none" xmlns="http://www.w3.org/2000/svg">
<path d="M19.912 2.6V25H15.752V15.4H4.168V25H0.00800014V2.6H4.168V11.848H15.752V2.6H19.912ZM33.2103 25.224C31.4823 25.224 29.9249 24.8507 28.5383 24.104C27.1516 23.3573 26.0636 22.3227 25.2743 21C24.5063 19.656 24.1223 18.1413 24.1223 16.456C24.1223 14.7707 24.5063 13.2667 25.2743 11.944C26.0636 10.6213 27.1516 9.58667 28.5383 8.84C29.9249 8.09333 31.4823 7.72 33.2103 7.72C34.9596 7.72 36.5276 8.09333 37.9143 8.84C39.3009 9.58667 40.3783 10.6213 41.1463 11.944C41.9356 13.2667 42.3303 14.7707 42.3303 16.456C42.3303 18.1413 41.9356 19.656 41.1463 21C40.3783 22.3227 39.3009 23.3573 37.9143 24.104C36.5276 24.8507 34.9596 25.224 33.2103 25.224ZM33.2103 21.8C34.6823 21.8 35.8983 21.3093 36.8583 20.328C37.8183 19.3467 38.2983 18.056 38.2983 16.456C38.2983 14.856 37.8183 13.5653 36.8583 12.584C35.8983 11.6027 34.6823 11.112 33.2103 11.112C31.7383 11.112 30.5223 11.6027 29.5623 12.584C28.6236 13.5653 28.1543 14.856 28.1543 16.456C28.1543 18.056 28.6236 19.3467 29.5623 20.328C30.5223 21.3093 31.7383 21.8 33.2103 21.8ZM56.4273 24.072C55.9579 24.456 55.3819 24.744 54.6993 24.936C54.0379 25.128 53.3339 25.224 52.5873 25.224C50.7099 25.224 49.2593 24.7333 48.2352 23.752C47.2113 22.7707 46.6993 21.3413 46.6993 19.464V11.24H43.8833V8.04H46.6993V4.136H50.6993V8.04H55.2753V11.24H50.6993V19.368C50.6993 20.2 50.9019 20.84 51.3073 21.288C51.7126 21.7147 52.2993 21.928 53.0673 21.928C53.9633 21.928 54.7099 21.6933 55.3073 21.224L56.4273 24.072ZM75.2193 16.552C75.2193 16.8293 75.1979 17.224 75.1553 17.736H61.7473C61.9819 18.9947 62.5899 19.9973 63.5713 20.744C64.5739 21.4693 65.8113 21.832 67.2833 21.832C69.1606 21.832 70.7073 21.2133 71.9233 19.976L74.0673 22.44C73.2993 23.3573 72.3286 24.0507 71.1553 24.52C69.9819 24.9893 68.6593 25.224 67.1873 25.224C65.3099 25.224 63.6566 24.8507 62.2273 24.104C60.7979 23.3573 59.6886 22.3227 58.8993 21C58.1313 19.656 57.7473 18.1413 57.7473 16.456C57.7473 14.792 58.1206 13.2987 58.8673 11.976C59.6353 10.632 60.6913 9.58667 62.0353 8.84C63.3793 8.09333 64.8939 7.72 66.5793 7.72C68.2433 7.72 69.7259 8.09333 71.0273 8.84C72.3499 9.56533 73.3739 10.6 74.0993 11.944C74.8459 13.2667 75.2193 14.8027 75.2193 16.552ZM66.5793 10.92C65.2993 10.92 64.2113 11.304 63.3153 12.072C62.4406 12.8187 61.9073 13.8213 61.7153 15.08H71.4113C71.2406 13.8427 70.7179 12.84 69.8433 12.072C68.9686 11.304 67.8806 10.92 66.5793 10.92ZM79.0615 1.256H83.0615V25H79.0615V1.256ZM104.568 13.352C105.805 13.7573 106.786 14.44 107.512 15.4C108.237 16.3387 108.6 17.512 108.6 18.92C108.6 20.8613 107.853 22.3653 106.36 23.432C104.866 24.4773 102.69 25 99.8315 25H88.6955V2.6H99.1915C101.837 2.6 103.874 3.12267 105.304 4.168C106.733 5.192 107.448 6.61067 107.448 8.424C107.448 9.53333 107.192 10.5147 106.68 11.368C106.168 12.2213 105.464 12.8827 104.568 13.352ZM92.8555 5.864V12.04H98.7435C100.194 12.04 101.304 11.784 102.072 11.272C102.861 10.7387 103.256 9.97067 103.256 8.968C103.256 7.944 102.861 7.176 102.072 6.664C101.304 6.13067 100.194 5.864 98.7435 5.864H92.8555ZM99.5755 21.736C102.797 21.736 104.408 20.6587 104.408 18.504C104.408 16.3493 102.797 15.272 99.5755 15.272H92.8555V21.736H99.5755ZM120.335 25.224C118.607 25.224 117.05 24.8507 115.663 24.104C114.277 23.3573 113.189 22.3227 112.399 21C111.631 19.656 111.247 18.1413 111.247 16.456C111.247 14.7707 111.631 13.2667 112.399 11.944C113.189 10.6213 114.277 9.58667 115.663 8.84C117.05 8.09333 118.607 7.72 120.335 7.72C122.085 7.72 123.653 8.09333 125.039 8.84C126.426 9.58667 127.503 10.6213 128.271 11.944C129.061 13.2667 129.455 14.7707 129.455 16.456C129.455 18.1413 129.061 19.656 128.271 21C127.503 22.3227 126.426 23.3573 125.039 24.104C123.653 24.8507 122.085 25.224 120.335 25.224ZM120.335 21.8C121.807 21.8 123.023 21.3093 123.983 20.328C124.943 19.3467 125.423 18.056 125.423 16.456C125.423 14.856 124.943 13.5653 123.983 12.584C123.023 11.6027 121.807 11.112 120.335 11.112C118.863 11.112 117.647 11.6027 116.687 12.584C115.749 13.5653 115.279 14.856 115.279 16.456C115.279 18.056 115.749 19.3467 116.687 20.328C117.647 21.3093 118.863 21.8 120.335 21.8ZM140.96 25.224C139.232 25.224 137.675 24.8507 136.288 24.104C134.902 23.3573 133.814 22.3227 133.024 21C132.256 19.656 131.872 18.1413 131.872 16.456C131.872 14.7707 132.256 13.2667 133.024 11.944C133.814 10.6213 134.902 9.58667 136.288 8.84C137.675 8.09333 139.232 7.72 140.96 7.72C142.71 7.72 144.278 8.09333 145.664 8.84C147.051 9.58667 148.128 10.6213 148.896 11.944C149.686 13.2667 150.08 14.7707 150.08 16.456C150.08 18.1413 149.686 19.656 148.896 21C148.128 22.3227 147.051 23.3573 145.664 24.104C144.278 24.8507 142.71 25.224 140.96 25.224ZM140.96 21.8C142.432 21.8 143.648 21.3093 144.608 20.328C145.568 19.3467 146.048 18.056 146.048 16.456C146.048 14.856 145.568 13.5653 144.608 12.584C143.648 11.6027 142.432 11.112 140.96 11.112C139.488 11.112 138.272 11.6027 137.312 12.584C136.374 13.5653 135.904 14.856 135.904 16.456C135.904 18.056 136.374 19.3467 137.312 20.328C138.272 21.3093 139.488 21.8 140.96 21.8ZM160.881 17.672L157.905 20.488V25H153.905V1.256H157.905V15.592L166.193 7.912H170.993L163.857 15.08L171.665 25H166.801L160.881 17.672ZM174.093 7.912H178.093V25H174.093V7.912ZM176.109 5.096C175.383 5.096 174.775 4.872 174.285 4.424C173.794 3.95467 173.549 3.37867 173.549 2.696C173.549 2.01333 173.794 1.448 174.285 0.999998C174.775 0.530666 175.383 0.296 176.109 0.296C176.834 0.296 177.442 0.519999 177.933 0.967999C178.423 1.39467 178.669 1.93867 178.669 2.6C178.669 3.304 178.423 3.90133 177.933 4.392C177.463 4.86133 176.855 5.096 176.109 5.096ZM193.039 7.72C195.193 7.72 196.921 8.34933 198.223 9.608C199.524 10.8667 200.175 12.7333 200.175 15.208V25H196.175V15.72C196.175 14.2267 195.823 13.1067 195.119 12.36C194.415 11.592 193.412 11.208 192.111 11.208C190.639 11.208 189.476 11.656 188.623 12.552C187.769 13.4267 187.343 14.696 187.343 16.36V25H183.343V7.912H187.151V10.12C187.812 9.33067 188.644 8.73333 189.647 8.328C190.649 7.92267 191.78 7.72 193.039 7.72ZM222.365 7.912V22.408C222.365 28.424 219.293 31.432 213.149 31.432C211.507 31.432 209.949 31.2187 208.477 30.792C207.005 30.3867 205.789 29.7893 204.829 29L206.621 25.992C207.368 26.6107 208.307 27.1013 209.437 27.464C210.589 27.848 211.752 28.04 212.925 28.04C214.803 28.04 216.179 27.6133 217.053 26.76C217.928 25.9067 218.365 24.6053 218.365 22.856V21.96C217.683 22.7067 216.851 23.272 215.869 23.656C214.888 24.04 213.811 24.232 212.637 24.232C211.016 24.232 209.544 23.8907 208.221 23.208C206.92 22.504 205.885 21.5227 205.117 20.264C204.371 19.0053 203.997 17.5653 203.997 15.944C203.997 14.3227 204.371 12.8933 205.117 11.656C205.885 10.3973 206.92 9.42667 208.221 8.744C209.544 8.06133 211.016 7.72 212.637 7.72C213.875 7.72 214.995 7.92267 215.997 8.328C217.021 8.73333 217.875 9.352 218.557 10.184V7.912H222.365ZM213.245 20.84C214.76 20.84 215.997 20.392 216.957 19.496C217.939 18.5787 218.429 17.3947 218.429 15.944C218.429 14.5147 217.939 13.352 216.957 12.456C215.997 11.56 214.76 11.112 213.245 11.112C211.709 11.112 210.451 11.56 209.469 12.456C208.509 13.352 208.029 14.5147 208.029 15.944C208.029 17.3947 208.509 18.5787 209.469 19.496C210.451 20.392 211.709 20.84 213.245 20.84Z" fill="#192252"/>
</svg>
